<?xml version="1.0" encoding="utf-8"?>
<!-- Generator: Adobe Illustrator 23.0.4, SVG Export Plug-In . SVG Version: 6.00 Build 0)  -->
<svg version="1.1" baseProfile="tiny" id="Layer_1" xmlns="http://www.w3.org/2000/svg" xmlns:xlink="http://www.w3.org/1999/xlink"
	 x="0px" y="0px" viewBox="0 0 24 24" xml:space="preserve">
<g id="bond-logo"><path d="M12 7.7c-4.5 0-8.1 3.6-8.1 8.1S7.5 24 12 24s8.1-3.6 8.1-8.1-3.6-8.2-8.1-8.2zm0 13c-2.7 0-4.9-2.2-4.9-4.9s2.2-4.9 4.9-4.9 4.9 2.2 4.9 4.9-2.2 4.9-4.9 4.9z"/><circle cx="7.5" cy="3.7" r="3.7"/><path d="M11.9 12.6c-1.8 0-3.3 1.4-3.3 3.2s1.4 3.3 3.2 3.3 3.3-1.4 3.3-3.2c.1-1.8-1.4-3.3-3.2-3.3z"/></g>
</svg>
